<?xml version="1.0" encoding="utf-8"?>
<!-- Generator: Adobe Illustrator 15.0.2, SVG Export Plug-In . SVG Version: 6.00 Build 0)  -->
<!DOCTYPE svg PUBLIC "-//W3C//DTD SVG 1.1//EN" "http://www.w3.org/Graphics/SVG/1.1/DTD/svg11.dtd">
<svg version="1.1" id="Layer_1" xmlns="http://www.w3.org/2000/svg" xmlns:xlink="http://www.w3.org/1999/xlink" x="0px" y="0px"
	 width="61.16px" height="92.313px" viewBox="0 0 61.16 92.313" enable-background="new 0 0 61.16 92.313" xml:space="preserve">
<ellipse opacity="0.1" fill="#010101" cx="30.58" cy="86.844" rx="20.037" ry="3.584"/>
<ellipse opacity="0.1" fill="#010101" cx="30.58" cy="86.844" rx="30.58" ry="5.47"/>
<path display="none" fill="#C62326" d="M57.302,26.72C57.302,11.963,45.344,0,30.58,0C15.823,0,3.858,11.963,3.858,26.72
	c0,4.874,1.331,9.427,3.608,13.361H7.434L30.58,86.844l23.156-46.763H53.7C55.987,36.147,57.302,31.593,57.302,26.72z M30.59,40.077
	c-7.382,0-13.361-5.982-13.361-13.359c0-7.378,5.979-13.361,13.361-13.361c7.375,0,13.36,5.982,13.36,13.361
	C43.95,34.095,37.965,40.077,30.59,40.077z"/>
<path fill="#00A6EF" d="M57.302,26.72C57.302,11.963,45.344,0,30.58,0C15.823,0,3.858,11.963,3.858,26.72
	c0,4.874,1.331,9.427,3.608,13.361H7.434L30.58,86.844l23.156-46.763H53.7C55.987,36.147,57.302,31.593,57.302,26.72z M30.59,40.077
	c-7.382,0-13.361-5.982-13.361-13.359c0-7.378,5.979-13.361,13.361-13.361c7.375,0,13.36,5.982,13.36,13.361
	C43.95,34.095,37.965,40.077,30.59,40.077z"/>
<path fill="#FFFFFF" d="M30.59,40.077c-7.382,0-13.361-5.982-13.361-13.359c0-7.378,5.979-13.361,13.361-13.361
	c7.375,0,13.36,5.982,13.36,13.361C43.95,34.095,37.965,40.077,30.59,40.077z"/>
</svg>
