<?xml version="1.0" encoding="utf-8"?>
<!-- Generator: Adobe Illustrator 15.0.2, SVG Export Plug-In . SVG Version: 6.00 Build 0)  -->
<!DOCTYPE svg PUBLIC "-//W3C//DTD SVG 1.1//EN" "http://www.w3.org/Graphics/SVG/1.1/DTD/svg11.dtd">
<svg version="1.1" id="Layer_1" xmlns="http://www.w3.org/2000/svg" xmlns:xlink="http://www.w3.org/1999/xlink" x="0px" y="0px"
	 width="61.16px" height="92.312px" viewBox="0 0 61.16 92.312" enable-background="new 0 0 61.16 92.312" xml:space="preserve">
<ellipse opacity="0.1" fill="#010101" enable-background="new    " cx="30.58" cy="86.844" rx="20.037" ry="3.584"/>
<ellipse opacity="0.1" fill="#010101" enable-background="new    " cx="30.58" cy="86.844" rx="30.58" ry="5.47"/>
<path display="none" fill="#C62326" d="M57.302,26.72C57.302,11.963,45.344,0,30.58,0C15.823,0,3.858,11.963,3.858,26.72
	c0,4.874,1.331,9.427,3.608,13.361H7.434L30.58,86.844l23.156-46.763H53.7C55.986,36.147,57.302,31.593,57.302,26.72z M30.59,40.077
	c-7.382,0-13.361-5.982-13.361-13.359c0-7.378,5.979-13.361,13.361-13.361c7.375,0,13.36,5.982,13.36,13.361
	C43.95,34.095,37.965,40.077,30.59,40.077z"/>
<path fill="#F9AC00" d="M57.302,26.72C57.302,11.963,45.344,0,30.58,0C15.823,0,3.857,11.963,3.857,26.72
	c0,4.874,1.332,9.427,3.608,13.361H7.434L30.58,86.844l23.156-46.763H53.7C55.986,36.147,57.302,31.593,57.302,26.72z M30.59,40.077
	c-7.382,0-13.361-5.982-13.361-13.359c0-7.378,5.979-13.361,13.361-13.361c7.375,0,13.36,5.982,13.36,13.361
	C43.95,34.095,37.965,40.077,30.59,40.077z"/>
<path display="none" fill="#00A6EF" d="M57.302,26.72C57.302,11.963,45.344,0,30.58,0C15.823,0,3.858,11.963,3.858,26.72
	c0,4.874,1.331,9.427,3.608,13.361H7.434L30.58,86.844l23.156-46.763H53.7C55.986,36.147,57.302,31.593,57.302,26.72z M30.59,40.077
	c-7.382,0-13.361-5.982-13.361-13.359c0-7.378,5.979-13.361,13.361-13.361c7.375,0,13.36,5.982,13.36,13.361
	C43.95,34.095,37.965,40.077,30.59,40.077z"/>
<path fill="#FFFFFF" d="M30.59,40.077c-7.382,0-13.361-5.982-13.361-13.359c0-7.378,5.979-13.361,13.361-13.361
	c7.375,0,13.36,5.982,13.36,13.361C43.95,34.095,37.965,40.077,30.59,40.077z"/>
<path display="none" fill="#6FC400" d="M57.312,26.72C57.312,11.963,45.354,0,30.59,0C15.833,0,3.867,11.963,3.867,26.72
	c0,4.874,1.332,9.427,3.608,13.361H7.443L30.59,86.844l23.156-46.763H53.71C55.996,36.147,57.312,31.593,57.312,26.72z M30.6,40.077
	c-7.382,0-13.361-5.982-13.361-13.359c0-7.378,5.979-13.361,13.361-13.361c7.375,0,13.36,5.982,13.36,13.361
	C43.96,34.095,37.975,40.077,30.6,40.077z"/>
<path display="none" fill="#C62326" d="M-42.698-133.28c0-14.757-11.958-26.72-26.722-26.72c-14.757,0-26.722,11.963-26.722,26.72
	c0,4.874,1.331,9.427,3.608,13.361h-0.032l23.146,46.763l23.156-46.763H-46.3C-44.014-123.853-42.698-128.407-42.698-133.28z
	 M-69.41-119.923c-7.382,0-13.361-5.982-13.361-13.359c0-7.378,5.979-13.361,13.361-13.361c7.375,0,13.36,5.982,13.36,13.361
	C-56.05-125.905-62.035-119.923-69.41-119.923z"/>
<path display="none" fill="#00A6EF" d="M22.432-133.28c0-14.757-11.958-26.72-26.722-26.72c-14.757,0-26.723,11.963-26.723,26.72
	c0,4.874,1.332,9.427,3.608,13.361h-0.032L-4.29-73.156l23.156-46.763H18.83C21.116-123.853,22.432-128.407,22.432-133.28z
	 M-4.28-119.923c-7.382,0-13.361-5.982-13.361-13.359c0-7.378,5.979-13.361,13.361-13.361c7.375,0,13.36,5.982,13.36,13.361
	C9.08-125.905,3.095-119.923-4.28-119.923z"/>
</svg>
